<svg xmlns="http://www.w3.org/2000/svg" viewBox="0 0 48 48" width="48" height="48">
  <!-- Tomato body -->
  <ellipse cx="24" cy="28" rx="18" ry="16" fill="#FF4500"/>
  <ellipse cx="24" cy="28" rx="18" ry="16" fill="url(#tg)" opacity="0.4"/>
  <!-- Highlight -->
  <ellipse cx="18" cy="22" rx="6" ry="4" fill="#FF6A33" opacity="0.6"/>
  <!-- Stem -->
  <path d="M24 12 C24 16 24 18 24 18" stroke="#4A7C2E" stroke-width="2.5" stroke-linecap="round"/>
  <!-- Leaves -->
  <path d="M24 14 C20 10 16 10 14 12 C16 12 20 13 24 14Z" fill="#5A9E3A"/>
  <path d="M24 14 C28 10 32 10 34 12 C32 12 28 13 24 14Z" fill="#4A8C2E"/>
  <path d="M24 13 C22 8 18 6 16 7 C18 9 22 12 24 13Z" fill="#6AAE4A"/>
  <!-- Crosshair reticle -->
  <circle cx="24" cy="28" r="20" fill="none" stroke="#FF4500" stroke-width="2" stroke-dasharray="4 4" opacity="0.7"/>
  <line x1="24" y1="2" x2="24" y2="10" stroke="#FF4500" stroke-width="2" opacity="0.7"/>
  <line x1="24" y1="46" x2="24" y2="38" stroke="#FF4500" stroke-width="2" opacity="0.7"/>
  <line x1="2" y1="28" x2="10" y2="28" stroke="#FF4500" stroke-width="2" opacity="0.7"/>
  <line x1="46" y1="28" x2="38" y2="28" stroke="#FF4500" stroke-width="2" opacity="0.7"/>
  <!-- Corner brackets -->
  <path d="M4 10 L4 4 L10 4" fill="none" stroke="#FF4500" stroke-width="2.5"/>
  <path d="M38 4 L44 4 L44 10" fill="none" stroke="#FF4500" stroke-width="2.5"/>
  <path d="M4 38 L4 44 L10 44" fill="none" stroke="#FF4500" stroke-width="2.5"/>
  <path d="M38 44 L44 44 L44 38" fill="none" stroke="#FF4500" stroke-width="2.5"/>
  <defs>
    <radialGradient id="tg" cx="0.4" cy="0.3">
      <stop offset="0%" stop-color="#FF6A33"/>
      <stop offset="100%" stop-color="#CC3700"/>
    </radialGradient>
  </defs>
</svg>