<svg xmlns="http://www.w3.org/2000/svg" viewBox="0 0 48 48" width="48" height="48">
  <!-- Dark background -->
  <rect width="48" height="48" rx="8" fill="#0D0D0D"/>
  <!-- Tomato body - orange circle -->
  <circle cx="24" cy="26" r="14" fill="#FF4500"/>
  <circle cx="24" cy="26" r="14" fill="url(#tg)" opacity="0.4"/>
  <!-- Highlight -->
  <ellipse cx="19" cy="21" rx="5" ry="3.5" fill="#FF6A33" opacity="0.5"/>
  <!-- Stem -->
  <path d="M24 12 C24 15 24 16 24 16" stroke="#4A7C2E" stroke-width="2.5" stroke-linecap="round"/>
  <!-- Leaves -->
  <path d="M24 14 C21 11 18 11 16 12.5 C18 12.5 21 13.5 24 14Z" fill="#5A9E3A"/>
  <path d="M24 14 C27 11 30 11 32 12.5 C30 12.5 27 13.5 24 14Z" fill="#4A8C2E"/>
  <!-- White diagonal slash -->
  <line x1="16" y1="34" x2="32" y2="18" stroke="#FFFFFF" stroke-width="3.5" stroke-linecap="round"/>
  <!-- Corner reticle brackets -->
  <path d="M4 12 L4 4 L12 4" fill="none" stroke="#FF4500" stroke-width="2.5" stroke-linecap="round"/>
  <path d="M36 4 L44 4 L44 12" fill="none" stroke="#FF4500" stroke-width="2.5" stroke-linecap="round"/>
  <path d="M4 36 L4 44 L12 44" fill="none" stroke="#FF4500" stroke-width="2.5" stroke-linecap="round"/>
  <path d="M36 44 L44 44 L44 36" fill="none" stroke="#FF4500" stroke-width="2.5" stroke-linecap="round"/>
  <defs>
    <radialGradient id="tg" cx="0.4" cy="0.3">
      <stop offset="0%" stop-color="#FF6A33"/>
      <stop offset="100%" stop-color="#CC3700"/>
    </radialGradient>
  </defs>
</svg>